<svg width="315" height="76" viewBox="0 0 315 76" fill="none" xmlns="http://www.w3.org/2000/svg">
<path d="M77.422 48.648C77.422 49.752 77.218 50.748 76.81 51.636C76.402 52.524 75.85 53.274 75.154 53.886C74.458 54.486 73.678 54.924 72.814 55.2C73.402 55.404 73.906 55.788 74.326 56.352C74.758 56.916 75.1 57.552 75.352 58.26L76.954 62.472C77.218 63.18 77.47 63.726 77.71 64.11C77.95 64.494 78.232 64.812 78.556 65.064C78.304 65.436 77.926 65.73 77.422 65.946C76.93 66.15 76.444 66.252 75.964 66.252C75.244 66.252 74.716 66.054 74.38 65.658C74.044 65.262 73.732 64.674 73.444 63.894L71.644 59.034C71.344 58.206 70.942 57.516 70.438 56.964C69.934 56.4 69.124 56.118 68.008 56.118H63.508V53.112C64.036 53.088 64.642 53.07 65.326 53.058C66.01 53.034 66.682 53.016 67.342 53.004C68.014 52.992 68.584 52.986 69.052 52.986C70.228 52.986 71.134 52.77 71.77 52.338C72.406 51.906 72.844 51.36 73.084 50.7C73.324 50.028 73.444 49.344 73.444 48.648C73.444 47.916 73.324 47.22 73.084 46.56C72.844 45.9 72.406 45.36 71.77 44.94C71.134 44.508 70.228 44.292 69.052 44.292C68.704 44.292 68.296 44.292 67.828 44.292C67.372 44.292 66.898 44.292 66.406 44.292C65.926 44.28 65.482 44.268 65.074 44.256V66C64.774 66.048 64.45 66.084 64.102 66.108C63.766 66.132 63.448 66.144 63.148 66.144C62.86 66.144 62.542 66.132 62.194 66.108C61.858 66.084 61.546 66.048 61.258 66V41.61L61.492 41.394C62.848 41.358 64.174 41.328 65.47 41.304C66.766 41.28 68.026 41.268 69.25 41.268C70.918 41.268 72.364 41.55 73.588 42.114C74.812 42.678 75.754 43.512 76.414 44.616C77.086 45.708 77.422 47.052 77.422 48.648ZM82.4342 46.542L82.6322 46.362H86.1422V49.404C86.1422 49.692 86.1482 49.986 86.1602 50.286C86.1722 50.586 86.1782 50.928 86.1782 51.312V61.338C86.1782 61.65 86.1722 61.944 86.1602 62.22C86.1482 62.484 86.1422 62.736 86.1422 62.976V66.018H84.6302C83.9582 66.018 83.4242 65.82 83.0282 65.424C82.6322 65.028 82.4342 64.476 82.4342 63.768V46.542ZM93.8822 54.516C93.9542 54.756 94.0022 55.02 94.0262 55.308C94.0502 55.596 94.0622 55.836 94.0622 56.028C94.0622 56.244 94.0502 56.496 94.0262 56.784C94.0022 57.06 93.9542 57.318 93.8822 57.558H88.2122C87.9602 57.558 87.6302 57.558 87.2222 57.558C86.8142 57.558 86.3942 57.558 85.9622 57.558C85.5422 57.546 85.1702 57.534 84.8462 57.522V54.57C85.1702 54.558 85.5422 54.552 85.9622 54.552C86.3942 54.54 86.8142 54.534 87.2222 54.534C87.6302 54.522 87.9602 54.516 88.2122 54.516H93.8822ZM95.6822 46.362C95.7302 46.626 95.7542 46.884 95.7542 47.136C95.7662 47.388 95.7722 47.628 95.7722 47.856C95.7722 48.072 95.7542 48.324 95.7182 48.612C95.6822 48.9 95.6102 49.182 95.5022 49.458H88.2122C87.9602 49.458 87.6302 49.458 87.2222 49.458C86.8142 49.458 86.3942 49.452 85.9622 49.44C85.5422 49.428 85.1702 49.416 84.8462 49.404V46.362H95.6822ZM96.2582 62.904C96.2582 64.08 96.0722 64.896 95.7002 65.352C95.3402 65.796 94.7282 66.018 93.8642 66.018H84.9002V63.048C85.3202 63.024 85.6922 63 86.0162 62.976C86.3522 62.952 86.6942 62.934 87.0422 62.922C87.4022 62.91 87.8282 62.904 88.3202 62.904H96.2582ZM105.447 46.362C105.759 46.302 106.131 46.26 106.563 46.236C106.995 46.212 107.373 46.2 107.697 46.2C107.985 46.2 108.327 46.212 108.723 46.236C109.119 46.26 109.479 46.302 109.803 46.362L116.913 65.82C116.625 65.964 116.277 66.072 115.869 66.144C115.461 66.216 115.089 66.252 114.753 66.252C114.237 66.252 113.799 66.15 113.439 65.946C113.079 65.73 112.779 65.256 112.539 64.524L109.245 55.146C109.065 54.63 108.873 54.036 108.669 53.364C108.465 52.68 108.261 52.002 108.057 51.33C107.853 50.658 107.673 50.046 107.517 49.494H107.355C107.139 50.274 106.887 51.138 106.599 52.086C106.311 53.034 106.065 53.826 105.861 54.462L101.775 66.018C101.547 66.078 101.289 66.12 101.001 66.144C100.713 66.168 100.431 66.18 100.155 66.18C99.8309 66.18 99.5069 66.156 99.1829 66.108C98.8709 66.06 98.6129 66 98.4089 65.928L98.2649 65.73L105.447 46.362ZM105.231 61.626C105.123 61.626 104.919 61.626 104.619 61.626C104.319 61.614 104.019 61.608 103.719 61.608C103.431 61.596 103.227 61.59 103.107 61.59H101.505L102.711 58.584H104.115C104.235 58.584 104.421 58.584 104.673 58.584C104.937 58.572 105.195 58.566 105.447 58.566C105.711 58.554 105.897 58.548 106.005 58.548H109.029C109.149 58.548 109.323 58.554 109.551 58.566C109.779 58.566 110.007 58.572 110.235 58.584C110.463 58.584 110.637 58.584 110.757 58.584H112.251L113.367 61.59H111.693C111.585 61.59 111.393 61.596 111.117 61.608C110.841 61.608 110.559 61.614 110.271 61.626C109.995 61.626 109.809 61.626 109.713 61.626H105.231ZM124.2 66.036H122.598C121.95 66.036 121.422 65.838 121.014 65.442C120.618 65.046 120.42 64.494 120.42 63.786V46.416L120.618 46.236H122.094C122.862 46.236 123.402 46.422 123.714 46.794C124.038 47.166 124.2 47.772 124.2 48.612V66.036ZM133.308 62.832C133.284 64.032 133.086 64.866 132.714 65.334C132.354 65.802 131.712 66.036 130.788 66.036H122.598L121.122 63.408C122.142 63.216 123.192 63.072 124.272 62.976C125.364 62.88 126.348 62.832 127.224 62.832H133.308ZM137.243 46.542L137.441 46.362H140.951V49.404C140.951 49.692 140.957 49.986 140.969 50.286C140.981 50.586 140.987 50.928 140.987 51.312V61.338C140.987 61.65 140.981 61.944 140.969 62.22C140.957 62.484 140.951 62.736 140.951 62.976V66.018H139.439C138.767 66.018 138.233 65.82 137.837 65.424C137.441 65.028 137.243 64.476 137.243 63.768V46.542ZM148.691 54.516C148.763 54.756 148.811 55.02 148.835 55.308C148.859 55.596 148.871 55.836 148.871 56.028C148.871 56.244 148.859 56.496 148.835 56.784C148.811 57.06 148.763 57.318 148.691 57.558H143.021C142.769 57.558 142.439 57.558 142.031 57.558C141.623 57.558 141.203 57.558 140.771 57.558C140.351 57.546 139.979 57.534 139.655 57.522V54.57C139.979 54.558 140.351 54.552 140.771 54.552C141.203 54.54 141.623 54.534 142.031 54.534C142.439 54.522 142.769 54.516 143.021 54.516H148.691ZM150.491 46.362C150.539 46.626 150.563 46.884 150.563 47.136C150.575 47.388 150.581 47.628 150.581 47.856C150.581 48.072 150.563 48.324 150.527 48.612C150.491 48.9 150.419 49.182 150.311 49.458H143.021C142.769 49.458 142.439 49.458 142.031 49.458C141.623 49.458 141.203 49.452 140.771 49.44C140.351 49.428 139.979 49.416 139.655 49.404V46.362H150.491ZM151.067 62.904C151.067 64.08 150.881 64.896 150.509 65.352C150.149 65.796 149.537 66.018 148.673 66.018H139.709V63.048C140.129 63.024 140.501 63 140.825 62.976C141.161 62.952 141.503 62.934 141.851 62.922C142.211 62.91 142.637 62.904 143.129 62.904H151.067ZM153.631 64.398C153.643 64.062 153.715 63.708 153.847 63.336C153.979 62.964 154.153 62.616 154.369 62.292C154.597 61.968 154.843 61.722 155.107 61.554C155.935 62.022 156.877 62.46 157.933 62.868C158.989 63.264 160.135 63.456 161.371 63.444C162.019 63.432 162.619 63.324 163.171 63.12C163.723 62.904 164.167 62.604 164.503 62.22C164.839 61.836 165.007 61.38 165.007 60.852C165.007 60.264 164.779 59.742 164.323 59.286C163.879 58.818 163.213 58.434 162.325 58.134L158.923 56.856C157.975 56.532 157.147 56.136 156.439 55.668C155.731 55.2 155.179 54.642 154.783 53.994C154.387 53.334 154.189 52.566 154.189 51.69C154.189 50.61 154.471 49.638 155.035 48.774C155.611 47.898 156.433 47.202 157.501 46.686C158.569 46.17 159.865 45.906 161.389 45.894C162.637 45.882 163.873 46.032 165.097 46.344C166.333 46.644 167.383 46.986 168.247 47.37C168.247 47.922 168.127 48.468 167.887 49.008C167.647 49.536 167.329 49.962 166.933 50.286C166.069 49.89 165.127 49.572 164.107 49.332C163.087 49.08 162.157 48.954 161.317 48.954C160.321 48.966 159.541 49.2 158.977 49.656C158.425 50.1 158.149 50.664 158.149 51.348C158.149 51.924 158.365 52.362 158.797 52.662C159.229 52.962 159.853 53.256 160.669 53.544L163.963 54.786C165.415 55.302 166.621 56.028 167.581 56.964C168.553 57.9 169.039 59.076 169.039 60.492C169.039 61.692 168.721 62.742 168.085 63.642C167.461 64.53 166.573 65.22 165.421 65.712C164.269 66.192 162.913 66.444 161.353 66.468C159.625 66.48 158.101 66.264 156.781 65.82C155.461 65.364 154.411 64.89 153.631 64.398ZM170.071 49.476C170.011 49.2 169.969 48.93 169.945 48.666C169.933 48.402 169.927 48.162 169.927 47.946C169.927 47.73 169.933 47.478 169.945 47.19C169.969 46.902 170.011 46.626 170.071 46.362H185.047C185.107 46.578 185.155 46.824 185.191 47.1C185.227 47.376 185.245 47.604 185.245 47.784C185.245 48.336 185.101 48.756 184.813 49.044C184.525 49.332 184.003 49.476 183.247 49.476H181.339C181.123 49.476 180.811 49.47 180.403 49.458C179.995 49.446 179.683 49.44 179.467 49.44H175.759C175.519 49.44 175.195 49.446 174.787 49.458C174.391 49.47 174.079 49.476 173.851 49.476H170.071ZM175.723 51.6C175.723 51.216 175.729 50.862 175.741 50.538C175.753 50.202 175.759 49.836 175.759 49.44V47.928H179.467V49.44C179.467 49.836 179.473 50.202 179.485 50.538C179.497 50.862 179.503 51.216 179.503 51.6V66C179.263 66.048 178.957 66.084 178.585 66.108C178.225 66.132 177.901 66.144 177.613 66.144C177.349 66.144 177.031 66.132 176.659 66.108C176.299 66.084 175.987 66.048 175.723 66V51.6ZM196.556 41.646L196.79 41.412H200.3V44.562C200.3 45.066 200.306 45.48 200.318 45.804C200.33 46.116 200.336 46.518 200.336 47.01V61.032C200.336 61.356 200.33 61.656 200.318 61.932C200.306 62.208 200.3 62.514 200.3 62.85V66.036H198.752C198.08 66.036 197.546 65.826 197.15 65.406C196.754 64.986 196.556 64.404 196.556 63.66V41.646ZM209.336 51.996C209.396 52.248 209.438 52.524 209.462 52.824C209.498 53.124 209.516 53.376 209.516 53.58C209.516 53.796 209.498 54.054 209.462 54.354C209.438 54.642 209.396 54.918 209.336 55.182H202.568C202.292 55.182 201.944 55.182 201.524 55.182C201.104 55.17 200.666 55.164 200.21 55.164C199.766 55.152 199.364 55.14 199.004 55.128V52.032C199.364 52.032 199.766 52.032 200.21 52.032C200.666 52.02 201.104 52.014 201.524 52.014C201.944 52.002 202.292 51.996 202.568 51.996H209.336ZM211.28 41.412C211.34 41.7 211.376 41.976 211.388 42.24C211.4 42.492 211.406 42.726 211.406 42.942C211.406 43.158 211.382 43.428 211.334 43.752C211.286 44.064 211.208 44.364 211.1 44.652H202.568C202.292 44.652 201.944 44.652 201.524 44.652C201.104 44.652 200.666 44.652 200.21 44.652C199.766 44.64 199.364 44.628 199.004 44.616V41.412H211.28ZM211.982 62.778C211.982 63.942 211.802 64.776 211.442 65.28C211.082 65.784 210.416 66.036 209.444 66.036H199.004V62.94C199.58 62.904 200.15 62.868 200.714 62.832C201.278 62.796 201.932 62.778 202.676 62.778H211.982ZM214.733 64.398C214.745 64.062 214.817 63.708 214.949 63.336C215.081 62.964 215.255 62.616 215.471 62.292C215.699 61.968 215.945 61.722 216.209 61.554C217.037 62.022 217.979 62.46 219.035 62.868C220.091 63.264 221.237 63.456 222.473 63.444C223.121 63.432 223.721 63.324 224.273 63.12C224.825 62.904 225.269 62.604 225.605 62.22C225.941 61.836 226.109 61.38 226.109 60.852C226.109 60.264 225.881 59.742 225.425 59.286C224.981 58.818 224.315 58.434 223.427 58.134L220.025 56.856C219.077 56.532 218.249 56.136 217.541 55.668C216.833 55.2 216.281 54.642 215.885 53.994C215.489 53.334 215.291 52.566 215.291 51.69C215.291 50.61 215.573 49.638 216.137 48.774C216.713 47.898 217.535 47.202 218.603 46.686C219.671 46.17 220.967 45.906 222.491 45.894C223.739 45.882 224.975 46.032 226.199 46.344C227.435 46.644 228.485 46.986 229.349 47.37C229.349 47.922 229.229 48.468 228.989 49.008C228.749 49.536 228.431 49.962 228.035 50.286C227.171 49.89 226.229 49.572 225.209 49.332C224.189 49.08 223.259 48.954 222.419 48.954C221.423 48.966 220.643 49.2 220.079 49.656C219.527 50.1 219.251 50.664 219.251 51.348C219.251 51.924 219.467 52.362 219.899 52.662C220.331 52.962 220.955 53.256 221.771 53.544L225.065 54.786C226.517 55.302 227.723 56.028 228.683 56.964C229.655 57.9 230.141 59.076 230.141 60.492C230.141 61.692 229.823 62.742 229.187 63.642C228.563 64.53 227.675 65.22 226.523 65.712C225.371 66.192 224.015 66.444 222.455 66.468C220.727 66.48 219.203 66.264 217.883 65.82C216.563 65.364 215.513 64.89 214.733 64.398ZM231.173 49.476C231.113 49.2 231.071 48.93 231.047 48.666C231.035 48.402 231.029 48.162 231.029 47.946C231.029 47.73 231.035 47.478 231.047 47.19C231.071 46.902 231.113 46.626 231.173 46.362H246.149C246.209 46.578 246.257 46.824 246.293 47.1C246.329 47.376 246.347 47.604 246.347 47.784C246.347 48.336 246.203 48.756 245.915 49.044C245.627 49.332 245.105 49.476 244.349 49.476H242.441C242.225 49.476 241.913 49.47 241.505 49.458C241.097 49.446 240.785 49.44 240.569 49.44H236.861C236.621 49.44 236.297 49.446 235.889 49.458C235.493 49.47 235.181 49.476 234.953 49.476H231.173ZM236.825 51.6C236.825 51.216 236.831 50.862 236.843 50.538C236.855 50.202 236.861 49.836 236.861 49.44V47.928H240.569V49.44C240.569 49.836 240.575 50.202 240.587 50.538C240.599 50.862 240.605 51.216 240.605 51.6V66C240.365 66.048 240.059 66.084 239.687 66.108C239.327 66.132 239.003 66.144 238.715 66.144C238.451 66.144 238.133 66.132 237.761 66.108C237.401 66.084 237.089 66.048 236.825 66V51.6ZM252.365 46.362C252.677 46.302 253.049 46.26 253.481 46.236C253.913 46.212 254.291 46.2 254.615 46.2C254.903 46.2 255.245 46.212 255.641 46.236C256.037 46.26 256.397 46.302 256.721 46.362L263.831 65.82C263.543 65.964 263.195 66.072 262.787 66.144C262.379 66.216 262.007 66.252 261.671 66.252C261.155 66.252 260.717 66.15 260.357 65.946C259.997 65.73 259.697 65.256 259.457 64.524L256.163 55.146C255.983 54.63 255.791 54.036 255.587 53.364C255.383 52.68 255.179 52.002 254.975 51.33C254.771 50.658 254.591 50.046 254.435 49.494H254.273C254.057 50.274 253.805 51.138 253.517 52.086C253.229 53.034 252.983 53.826 252.779 54.462L248.693 66.018C248.465 66.078 248.207 66.12 247.919 66.144C247.631 66.168 247.349 66.18 247.073 66.18C246.749 66.18 246.425 66.156 246.101 66.108C245.789 66.06 245.531 66 245.327 65.928L245.183 65.73L252.365 46.362ZM252.149 61.626C252.041 61.626 251.837 61.626 251.537 61.626C251.237 61.614 250.937 61.608 250.637 61.608C250.349 61.596 250.145 61.59 250.025 61.59H248.423L249.629 58.584H251.033C251.153 58.584 251.339 58.584 251.591 58.584C251.855 58.572 252.113 58.566 252.365 58.566C252.629 58.554 252.815 58.548 252.923 58.548H255.947C256.067 58.548 256.241 58.554 256.469 58.566C256.697 58.566 256.925 58.572 257.153 58.584C257.381 58.584 257.555 58.584 257.675 58.584H259.169L260.285 61.59H258.611C258.503 61.59 258.311 61.596 258.035 61.608C257.759 61.608 257.477 61.614 257.189 61.626C256.913 61.626 256.727 61.626 256.631 61.626H252.149ZM262.989 49.476C262.929 49.2 262.887 48.93 262.863 48.666C262.851 48.402 262.845 48.162 262.845 47.946C262.845 47.73 262.851 47.478 262.863 47.19C262.887 46.902 262.929 46.626 262.989 46.362H277.965C278.025 46.578 278.073 46.824 278.109 47.1C278.145 47.376 278.163 47.604 278.163 47.784C278.163 48.336 278.019 48.756 277.731 49.044C277.443 49.332 276.921 49.476 276.165 49.476H274.257C274.041 49.476 273.729 49.47 273.321 49.458C272.913 49.446 272.601 49.44 272.385 49.44H268.677C268.437 49.44 268.113 49.446 267.705 49.458C267.309 49.47 266.997 49.476 266.769 49.476H262.989ZM268.641 51.6C268.641 51.216 268.647 50.862 268.659 50.538C268.671 50.202 268.677 49.836 268.677 49.44V47.928H272.385V49.44C272.385 49.836 272.391 50.202 272.403 50.538C272.415 50.862 272.421 51.216 272.421 51.6V66C272.181 66.048 271.875 66.084 271.503 66.108C271.143 66.132 270.819 66.144 270.531 66.144C270.267 66.144 269.949 66.132 269.577 66.108C269.217 66.084 268.905 66.048 268.641 66V51.6ZM281.348 46.542L281.546 46.362H285.056V49.404C285.056 49.692 285.062 49.986 285.074 50.286C285.086 50.586 285.092 50.928 285.092 51.312V61.338C285.092 61.65 285.086 61.944 285.074 62.22C285.062 62.484 285.056 62.736 285.056 62.976V66.018H283.544C282.872 66.018 282.338 65.82 281.942 65.424C281.546 65.028 281.348 64.476 281.348 63.768V46.542ZM292.796 54.516C292.868 54.756 292.916 55.02 292.94 55.308C292.964 55.596 292.976 55.836 292.976 56.028C292.976 56.244 292.964 56.496 292.94 56.784C292.916 57.06 292.868 57.318 292.796 57.558H287.126C286.874 57.558 286.544 57.558 286.136 57.558C285.728 57.558 285.308 57.558 284.876 57.558C284.456 57.546 284.084 57.534 283.76 57.522V54.57C284.084 54.558 284.456 54.552 284.876 54.552C285.308 54.54 285.728 54.534 286.136 54.534C286.544 54.522 286.874 54.516 287.126 54.516H292.796ZM294.596 46.362C294.644 46.626 294.668 46.884 294.668 47.136C294.68 47.388 294.686 47.628 294.686 47.856C294.686 48.072 294.668 48.324 294.632 48.612C294.596 48.9 294.524 49.182 294.416 49.458H287.126C286.874 49.458 286.544 49.458 286.136 49.458C285.728 49.458 285.308 49.452 284.876 49.44C284.456 49.428 284.084 49.416 283.76 49.404V46.362H294.596ZM295.172 62.904C295.172 64.08 294.986 64.896 294.614 65.352C294.254 65.796 293.642 66.018 292.778 66.018H283.814V63.048C284.234 63.024 284.606 63 284.93 62.976C285.266 62.952 285.608 62.934 285.956 62.922C286.316 62.91 286.742 62.904 287.234 62.904H295.172ZM297.737 64.398C297.749 64.062 297.821 63.708 297.953 63.336C298.085 62.964 298.259 62.616 298.475 62.292C298.703 61.968 298.949 61.722 299.213 61.554C300.041 62.022 300.983 62.46 302.039 62.868C303.095 63.264 304.241 63.456 305.477 63.444C306.125 63.432 306.725 63.324 307.277 63.12C307.829 62.904 308.273 62.604 308.609 62.22C308.945 61.836 309.113 61.38 309.113 60.852C309.113 60.264 308.885 59.742 308.429 59.286C307.985 58.818 307.319 58.434 306.431 58.134L303.029 56.856C302.081 56.532 301.253 56.136 300.545 55.668C299.837 55.2 299.285 54.642 298.889 53.994C298.493 53.334 298.295 52.566 298.295 51.69C298.295 50.61 298.577 49.638 299.141 48.774C299.717 47.898 300.539 47.202 301.607 46.686C302.675 46.17 303.971 45.906 305.495 45.894C306.743 45.882 307.979 46.032 309.203 46.344C310.439 46.644 311.489 46.986 312.353 47.37C312.353 47.922 312.233 48.468 311.993 49.008C311.753 49.536 311.435 49.962 311.039 50.286C310.175 49.89 309.233 49.572 308.213 49.332C307.193 49.08 306.263 48.954 305.423 48.954C304.427 48.966 303.647 49.2 303.083 49.656C302.531 50.1 302.255 50.664 302.255 51.348C302.255 51.924 302.471 52.362 302.903 52.662C303.335 52.962 303.959 53.256 304.775 53.544L308.069 54.786C309.521 55.302 310.727 56.028 311.687 56.964C312.659 57.9 313.145 59.076 313.145 60.492C313.145 61.692 312.827 62.742 312.191 63.642C311.567 64.53 310.679 65.22 309.527 65.712C308.375 66.192 307.019 66.444 305.459 66.468C303.731 66.48 302.207 66.264 300.887 65.82C299.567 65.364 298.517 64.89 297.737 64.398Z" fill="white"/>
<path d="M55.7812 55.5823V33.9062H39.375V55.5823H55.7812ZM43.75 38.2812H51.4062V51.2073H43.75V38.2812Z" fill="white"/>
<path d="M37.0614 4.61414C36.1787 3.80201 35.0162 3.36254 33.817 3.38761C32.6178 3.41269 31.4747 3.90036 30.6266 4.74867L4.375 31.0003V67.8125H19.6875V45.9375H28.4375V67.8125H65.625V30.8927L37.0614 4.61414ZM61.25 63.4375H32.8125V41.5625H15.3125V63.4375H8.75V32.8125L34.0993 7.84166V7.834L61.25 32.8125V63.4375Z" fill="white"/>
</svg>
